Coordinates
version=1
nRows=8
nColumns=33
inDegrees=yes

Units are S.I. units (second, meters, Newtons, ...)
Angles are in degrees.

endheader
time	ground_thorax_rot_x	ground_thorax_rot_y	ground_thorax_rot_z	ground_thorax_tx	ground_thorax_ty	ground_thorax_tz	clav_prot_r	clav_elev_r	scapula_abduction_r	scapula_elevation_r	scapula_upward_rot_r	scapula_winging_r	shoulder_elv_r	plane_of_elev_r	axial_rot_r	elbow_flexion_r	pro_sup_r	wrist_flex_r	wrist_dev_r	clav_prot_l	clav_elev_l	scapula_abduction_l	scapula_elevation_l	scapula_upward_rot_l	scapula_winging_l	shoulder_elv_l	plane_of_elev_l	axial_rot_l	elbow_flexion_l	pro_sup_l	wrist_flex_l	wrist_dev_l
      3.55000000	     -3.30912154	      4.66877686	      8.69225998	     -0.09355180	      1.02679817	      0.00884208	     16.79507553	    -13.78640580	     42.18277113	    -13.98112081	     23.30817370	    -11.43661964	     -3.06908983	    -55.25993395	    122.42134662	    -33.74224929	   -128.65061213	     -1.06530400	      6.20675671	     26.02252306	    -11.18268482	    -39.10404016	     -5.81153345	    -25.02225611	     13.42757308	     55.36144454	      2.02441339	      3.51531312	     13.40626805	     18.20712520	     16.83724362	     -6.90094324
      3.56000000	     -3.30140902	      4.67306750	      8.72697811	     -0.09360695	      1.02649206	      0.00898726	     16.91567478	    -13.72845435	     42.10926331	    -13.82316964	     22.91507190	    -11.50627133	     -3.17344588	    -55.34899185	    122.23480744	    -34.32549014	   -129.24996748	     -0.67325126	      5.99986151	     25.91582232	    -11.01669771	    -38.95122869	     -5.96735541	    -25.04433190	     13.37111338	     55.30117311	      1.77220559	      3.82540287	     14.01737393	     17.77139377	     16.67732416	     -7.08974998
      3.57000000	     -3.29425245	      4.61032448	      8.76673563	     -0.09397110	      1.02670138	      0.00885416	     17.22515150	    -14.18443429	     42.29009890	    -14.09662657	     22.51517603	    -11.36817930	     -3.28456463	    -56.00459325	    121.90660247	    -34.47989130	   -134.50700026	      0.67431964	      4.87634935	     25.62627266	    -11.03045071	    -38.47745916	     -5.89660229	    -24.87376844	     13.08653501	     55.27343793	      1.15515579	      3.49691995	     14.40647126	     15.98339408	     16.15922452	     -7.40087900
      3.58000000	     -3.21592554	      4.67263789	      8.79047621	     -0.09407098	      1.02616359	      0.00907378	     17.06631333	    -13.91795489	     41.82242219	    -13.77872145	     22.15304318	    -11.36896806	     -3.47719648	    -55.99463130	    121.78031265	    -35.15153319	   -134.88111166	      0.76045636	      4.65342549	     25.42288858	    -10.85938191	    -38.16277666	     -6.10153023	    -24.98384129	     12.92622953	     55.26687819	      1.02411975	      4.00700328	     15.18960706	     15.82374345	     16.09741145	     -7.51830590
      3.59000000	     -3.19464550	      4.81663196	      8.82757869	     -0.09405112	      1.02634557	      0.00919432	     16.78835917	    -14.25122299	     40.90546643	    -13.88975328	     21.45001350	    -10.80588071	     -3.63735631	    -56.28071500	    121.61255393	    -35.88264056	   -139.38583706	      1.15653571	      4.23980717	     24.97965154	    -11.07005622	    -37.39698329	     -6.06813878	    -25.23877397	     12.38916048	     55.83026146	      0.58089709	      3.76827803	     16.05229595	     15.74884848	     16.41312576	     -7.68020542
      3.60000000	     -3.12914573	      4.82192752	      8.85017004	     -0.09432857	      1.02564225	      0.00934433	     16.64831344	    -14.03049238	     40.42526615	    -13.59012733	     21.03180127	    -10.77911402	     -3.85476560	    -56.36484338	    121.51243883	    -36.74788834	   -139.84121366	      1.40541409	      4.09838706	     24.76801011	    -10.80626298	    -37.07739828	     -6.35094911	    -25.34158869	     12.25033256	     55.75209205	      0.39761253	      4.47083474	     17.04273931	     15.54134372	     16.36280872	     -7.91111091
      3.61000000	     -3.14449138	      4.93636332	      8.94955683	     -0.09471690	      1.02575307	      0.00939027	     16.50865425	    -14.57836226	     39.53093496	    -13.79887721	     20.04925124	    -10.12973814	     -3.97532711	    -56.82559447	    121.21621079	    -37.88323161	   -144.54512242	      2.05743879	      4.43769957	     24.43770112	    -10.93550420	    -36.50915925	     -6.36006639	    -25.55529285	     11.86004290	     56.17879733	     -0.16916849	      4.51123442	     18.11261496	     15.62227641	     16.82572002	     -8.37516517
      3.62000000	     -3.06199666	      4.94677021	      8.94629220	     -0.09505901	      1.02499339	      0.00957130	     16.29416354	    -14.28542276	     38.92622238	    -13.42813028	     19.60739647	    -10.09104373	     -4.28650122	    -56.88551678	    121.11551663	    -38.95010624	   -145.04835775	      2.28961666	      4.29667615	     24.19589578	    -10.65975781	    -36.13885553	     -6.67472095	    -25.69983648	     11.69065553	     56.11488443	     -0.35134599	      5.27814973	     19.27446331	     15.43951763	     16.77297860	     -8.61929323
